<svg xmlns="http://www.w3.org/2000/svg" viewBox="0 0 56.43 16.75"><title>tag-djq</title><path d="M84.62,12.78c-0.05-.55-0.35-0.15-0.55-0.4A0.3,0.3,0,0,1,84.22,12a0.78,0.78,0,0,0,.2-0.85,7.76,7.76,0,0,0-2.15-2.55,0.89,0.89,0,0,0-.5-0.2H80.62a1.15,1.15,0,0,0-.7.2l-1.4.7-0.4-.5a0.93,0.93,0,0,0-.75-0.45h-5.9a0.8,0.8,0,0,0-.45.15l-0.55.4h0a1.15,1.15,0,0,0-1-.55H60.92a0.83,0.83,0,0,0-.6.25L60,9l-0.15-.3a0.55,0.55,0,0,0-.5-0.3h-3.1a1,1,0,0,0-.8.45l-0.2.35-0.85-.8h-3.2c-1.25,1.2-1.45.6-1.45,0.6V8.53l-0.2-.1H46.87a1,1,0,0,0-.5.15c-1,.6-1.7.65-1.8,0.35s-0.5-.7-1.15-0.1-1.8,2.8-2.5,2.85a3.66,3.66,0,0,0-3.5-1.9,3.87,3.87,0,0,0-3-1,3.94,3.94,0,0,0-2.85,1.3c-1.9.45-3.35,1.75-3.35,3.2v8.9a2.9,2.9,0,0,0,2.9,2.9h9.05a1.37,1.37,0,0,0,1-.4l0.5-.55a4,4,0,0,0,3.15.95c3.55,0,4.3-5.8,4.3-5.8h0.2v3.95c0,1.6,2.2,1.8,2.2,1.8h6.95a0.45,0.45,0,0,0,.35-0.15l0.45-.45,0.4,0.4A0.57,0.57,0,0,0,60,25H73.67a25.74,25.74,0,0,0,2.2-5.7h1.3v2.15c-1.15,2.6.9,3.4,1.3,3.55H82C83.47,25,84,23,84,23V16.93a0.85,0.85,0,0,0,.6-0.55S84.72,13.38,84.62,12.78Z" transform="translate(-28.22 -8.38)" style="fill:#d42c3a"/><path d="M42.37,18.13a2.66,2.66,0,0,0-.6-1.45,2.24,2.24,0,0,0-1.2-.8,1.86,1.86,0,0,0-.9-0.1h0V13.83h0a2.5,2.5,0,0,0-.1-0.6,2.4,2.4,0,0,0-1.1-1.5,2.56,2.56,0,0,0-1.9-.4h0a2.72,2.72,0,0,0-1.6-.8,2.7,2.7,0,0,0-1.4.25,2.66,2.66,0,0,0-1.1,1c0,0.05,0,.05-0.1.05a0.85,0.85,0,0,0-.5.15,2.78,2.78,0,0,0-1.15.85,3.31,3.31,0,0,0-.45.95v0.05h0v8.05a1.34,1.34,0,0,0,1.34,1.35h6.71a1.34,1.34,0,0,0,1.35-1.34h0V21h0A2.05,2.05,0,0,0,40.22,21a2.56,2.56,0,0,0,1-.5,2.32,2.32,0,0,0,.85-1.2A1.68,1.68,0,0,0,42.37,18.13ZM31,13.73a1.46,1.46,0,0,1,.55-0.8,1.8,1.8,0,0,1,1-.55,0.71,0.71,0,0,0,.3-0.1,2,2,0,0,1,.8-1,2,2,0,0,1,1.2-.3,4.17,4.17,0,0,1,.75.2,1.87,1.87,0,0,1,.65.6,0.38,0.38,0,0,0,.25.1,2.36,2.36,0,0,1,.85-0.05,1.81,1.81,0,0,1,1.35.7,1.5,1.5,0,0,1,.4,1.1v0.05h0c-2.8.05-5.5,0.05-8.15,0.05h0Zm6.5,3.05v3.7h-0.8v-3.7h0.8Zm-2.1,0v3.7h-0.8v-3.7h0.8Zm-2.1,0v3.7h-0.8v-3.7h0.8Zm8.15,2.55a1.77,1.77,0,0,1-1.15.9c-0.2.05-.4,0.05-0.6,0.1h0V16.48h0a1.1,1.1,0,0,1,.4.05,1.55,1.55,0,0,1,1,.45,1.82,1.82,0,0,1,.55,1.3,1.35,1.35,0,0,1-.2,1h0Z" transform="translate(-28.22 -8.38)" style="fill:#eae7e7"/><path d="M51.27,23.23V17h-3.6l-2,6.25h-2.5l2-6.25h-1.6V11.13H55.67V17H53.72v5.2h2.4v1.05H51.27Zm-5.75-12.3,3-1v1h-3Zm0.6,4.85h7.05v-3.5H46.12v3.5Zm4.2-4.85,2.95-1v1H50.32Z" transform="translate(-28.22 -8.38)" style="fill:#eae7e7"/><path d="M58.67,10.43L60,13.18h-2.3l-1.35-2.75h2.3Zm0,3.4L60,16.63h-2.3l-1.35-2.8h2.3Zm-2.25,9.4,1.35-5.55h2.3l-1.35,5.55h-2.3Zm13-11.85H66.67v1.35h2.45v10.5h-8.9V12.73h2.7l0.15-1.35H60.12v-1h9.3v1Zm-2.25,8.45v-1H65V13.68H64.52L64,18.83h-1.6l0.45-5.15H62.22v6.15h4.95Zm0,2.45V20.83H62.22v1.45h4.95Zm-2.45-10.9-0.1,1.35H65V11.38h-0.3Zm2.45,2.3h-0.5v4.2h0.5v-4.2Z" transform="translate(-28.22 -8.38)" style="fill:#eae7e7"/><path d="M82.82,13.43v1h-1.4l1.4,1.75H80l-1.4-1.75H74l-1.4,1.75H69.77l1.35-1.75H69.77v-1h2.1l0.8-.95H70v-1h3.4l0.85-1h2.9l-0.85,1h6.1v1H75.47l-0.75.95h8.1Zm-8.45,4.25-1.85,5.65H69.77l1.85-5.65H69.77V16.63h12.5v6.7H78.92l0.65-1.6v-4h-5.2V17.68h0Zm-3.45-6.5,2-1v1h-2Zm8.7,0,2-1v1h-2Z" transform="translate(-28.22 -8.38)" style="fill:#eae7e7"/></svg>