<svg xmlns="http://www.w3.org/2000/svg" viewBox="0 0 57.85 16.7"><title>tag-zxf</title><ellipse cx="8.5" cy="8.4" rx="8.5" ry="8.3" style="fill:#d42c3a"/><path d="M42.73,10.25a5.1,5.1,0,0,1,3.55-.85l0.4-.4a2.69,2.69,0,0,1,2.15-.65,3.45,3.45,0,0,1,2.5.7h5.2a1,1,0,0,1,.6.2l0.5,0.35a0.45,0.45,0,0,0,.6,0l0.55-.6A1.63,1.63,0,0,1,60,8.4h2.05a1.17,1.17,0,0,1,.8.5l0.2,0.2a0.3,0.3,0,0,0,.4,0l0.25-.25a1.37,1.37,0,0,1,.8-0.5h2.15a0.83,0.83,0,0,1,.75.45l0.3,0.45a0.5,0.5,0,0,0,.68.19l0.12-.09,0.55-.45a1.36,1.36,0,0,1,.85-0.3h1a0.81,0.81,0,0,1,.7.35L72,9.45l1.15-.8A1.68,1.68,0,0,1,74,8.4h1.9a1,1,0,0,1,.55.15,2.41,2.41,0,0,1,1.2,1.75h1.75s1-2,2.8-2h1.95a1.79,1.79,0,0,1,1.55,1,5.52,5.52,0,0,1,.35,2.2,0.69,0.69,0,0,1,.7.67s0,0,0,0v1.5a1,1,0,0,1-.75.85v7.95C86,23.5,85.58,25,83.18,25h-2.1S79,24.85,79,23.15a2.2,2.2,0,0,1,.45-1.3,11.75,11.75,0,0,0,0-1.9H76.88V23.1s-0.3,1.85-1.9,1.85H72.93a1.39,1.39,0,0,1-1.2-.45A4.2,4.2,0,0,1,70,25h-1.3a1.19,1.19,0,0,1-.8-0.6,4.22,4.22,0,0,1-2.15.6c-1.25,0-2.55-.4-2.55-1V22.85A3,3,0,0,1,60.08,25H46.23A3.82,3.82,0,0,1,43.08,23C42.13,21.75,42.73,10.25,42.73,10.25Z" transform="translate(-28.93 -8.35)" style="fill:#d42c3a"/><path d="M45.88,16.85h-1l2.15-4.7h-2v-1h2.45l0.4-.8h2.45l-0.4.8h7.75v1H49.48L48.18,15v7.9h-2.3v-6.1Zm8.65-.25v5.35h3.4V23H48.58V21.95h3.55V16.6h-3.2V15.55h3.2V13.4l2.4-.4v2.5h3v1.05h-3V16.6h0Z" transform="translate(-28.93 -8.35)" style="fill:#eae7e7"/><path d="M60.53,14.45h2.05L61,17.8h1.5v0.95h-4.3l2-4.2h-2l2-4.2h2.3ZM60,19.4h2.45L60.63,23H58.18Zm8.7-2.95,0.35-.55h2.05l-1.6,2.65,1.55,4.4h-2.3l-0.7-2.05-1.35,2.05h-2.1l2.65-4.2L66.13,15.4l-3.1.15v-1l2.8-.15-0.45-1.3L63,13.2v-1L65,12.1l-0.6-1.8h2.3l0.6,1.65,3.75-.2v1l-3.4.2,0.45,1.3L71,14.1v1l-2.6.15Zm2.05-5.05h-2l2-1.1v1.1Z" transform="translate(-28.93 -8.35)" style="fill:#eae7e7"/><path d="M72.63,16.3h-1.1l2-6h2.4L75,13.3v9.65H72.63V16.3h0Zm11.85-4.15v1.1H84V23h-2.9l0.5-1.35v-8.4h-5.7v-1.1h5.7V10.7l2.4-.4v1.85h0.5ZM79.73,18H77.28l-1.15-3.65h2.4Z" transform="translate(-28.93 -8.35)" style="fill:#eae7e7"/><circle cx="8.5" cy="8.2" r="6.3" style="fill:#eae7e7"/><rect x="5.8" y="7.55" width="5.45" height="1.15" style="fill:#d42c3a"/><rect x="7.95" y="7.7" width="1.15" height="4.45" style="fill:#d42c3a"/><rect x="5.8" y="9.5" width="5.45" height="1.15" style="fill:#d42c3a"/><polygon points="9.85 4.7 8.5 7 7.2 4.7 5.85 4.7 8 8.4 8.5 8.1 9.05 8.4 11.15 4.7 9.85 4.7" style="fill:#d42c3a"/></svg>