<svg xmlns="http://www.w3.org/2000/svg" viewBox="0 0 52.6 13.45"><title>tag-djq-noborder</title><path d="M38.45,15a2.66,2.66,0,0,0-.6-1.45,2.24,2.24,0,0,0-1.2-.8,1.86,1.86,0,0,0-.9-0.1h0v-2h0a2.5,2.5,0,0,0-.1-0.6,2.4,2.4,0,0,0-1.1-1.5,2.56,2.56,0,0,0-1.9-.4h0a2.73,2.73,0,0,0-1.6-.8,2.7,2.7,0,0,0-1.4.25,2.66,2.66,0,0,0-1.1,1c0,0.05,0,.05-0.1.05a0.85,0.85,0,0,0-.5.15,2.78,2.78,0,0,0-1.15.85,3.31,3.31,0,0,0-.45.95v0.05h0v8.05a1.34,1.34,0,0,0,1.34,1.35h6.71a1.34,1.34,0,0,0,1.35-1.34h0V17.87h0.05a2.05,2.05,0,0,0,.55-0.05,2.56,2.56,0,0,0,1-.5,2.32,2.32,0,0,0,.85-1.2A1.62,1.62,0,0,0,38.45,15Zm-11.4-4.4a1.46,1.46,0,0,1,.55-0.8,1.8,1.8,0,0,1,1-.55,0.71,0.71,0,0,0,.3-0.1,2,2,0,0,1,.8-1,2,2,0,0,1,1.2-.3,4.17,4.17,0,0,1,.75.2,1.87,1.87,0,0,1,.65.6,0.38,0.38,0,0,0,.25.1,2.36,2.36,0,0,1,.85-0.05,1.81,1.81,0,0,1,1.35.7,1.5,1.5,0,0,1,.4,1.1v0.05h0c-2.8.1-5.5,0.1-8.15,0.05h0Zm6.5,3.05v3.7h-0.8v-3.7h0.8Zm-2.1,0v3.7h-0.8v-3.7h0.8Zm-2,0v3.7H28.6v-3.7h0.8Zm8.15,2.55a1.77,1.77,0,0,1-1.15.9c-0.2.05-.4,0.05-0.6,0.1h0V13.33h0a1.1,1.1,0,0,1,.4.05,1.55,1.55,0,0,1,1,.45,1.82,1.82,0,0,1,.55,1.3,2,2,0,0,1-.2,1h0Z" transform="translate(-26.3 -6.72)" style="fill:#eae7e7"/><path d="M47.35,20.07V13.82h-3.6L41.8,20.07H39.3l2-6.25H39.7V8h12v5.85H49.8V19h2.4v1.05H47.35ZM41.6,7.77l2.95-1.05V7.77H41.6Zm0.6,4.85h7.05V9.12H42.2v3.5Zm4.2-4.85,2.95-1.05V7.77H46.4Z" transform="translate(-26.3 -6.72)" style="fill:#eae7e7"/><path d="M54.8,7.27L56.15,10h-2.3L52.5,7.27h2.3Zm0,3.4,1.35,2.8h-2.3l-1.35-2.8h2.3Zm-2.3,9.4,1.35-5.55h2.3L54.8,20.07H52.5Zm13-11.85H62.75V9.57H65.2v10.5H56.3V9.57H59l0.15-1.35h-2.9V7.27h9.3V8.22H65.5Zm-2.25,8.45v-1h-2.2V10.52H60.6l-0.5,5.15H58.5L59,10.52H58.3v6.15h4.95Zm0,2.45V17.67H58.3v1.45h4.95ZM60.8,8.22L60.7,9.57h0.4V8.22H60.8Zm2.45,2.3h-0.5v4.2h0.5v-4.2Z" transform="translate(-26.3 -6.72)" style="fill:#eae7e7"/><path d="M78.9,10.27v1H77.5L78.9,13H76.05l-1.4-1.75H70.1L68.7,13H65.85l1.35-1.75H65.85v-1h2.1l0.8-.95H66.1v-1h3.4l0.85-1.05h2.9L72.4,8.32h6.1v1H71.55l-0.75.95h8.1Zm-8.45,4.25L68.6,20.17H65.85l1.85-5.65H65.85V13.47h12.5v6.7H75l0.65-1.6v-4h-5.2V14.52h0ZM67,8.07l2-1v1H67Zm8.7,0,2-1v1h-2Z" transform="translate(-26.3 -6.72)" style="fill:#eae7e7"/></svg>