<svg xmlns="http://www.w3.org/2000/svg" viewBox="0 0 53.35 12.75"><title>tag-zxf-noborder</title><path d="M41.47,13h-1l2.15-4.7h-2v-1h2.45l0.4-.8H46l-0.4.8h7.75v1H45.07l-1.3,2.9v7.9H41.42V13h0Zm8.6-.3v5.35h3.4v1.05H44.12V18.07h3.55V12.72h-3.2V11.67h3.2V9.52l2.4-.4v2.5h3v1.05h-3v0.05Z" transform="translate(-26.67 -6.37)" style="fill:#eae7e7"/><path d="M56.07,10.62h2.05L56.53,14H58v0.95H53.77l2-4.2h-2l2-4.2h2.3Zm-0.5,4.9H58l-1.85,3.6h-2.4Zm8.7-2.95L64.62,12h2.05l-1.6,2.65,1.55,4.4h-2.3L63.63,17l-1.35,2.05h-2.1l2.65-4.2-1.15-3.35-3.1.15v-1l2.8-.15-0.45-1.3-2.35.1v-1l1.95-.1-0.6-1.8h2.3l0.6,1.65,3.75-.2v1l-3.4.2,0.45,1.3,2.95-.15v1l-2.6.15Zm2.05-5h-2l2-1.1v1.1Z" transform="translate(-26.67 -6.37)" style="fill:#eae7e7"/><path d="M68.17,12.47h-1.1l2-5.95h2.4L70.53,9.47v9.65H68.18V12.47h0ZM80,8.27v1.1h-0.5v9.75h-2.9l0.5-1.35V9.37h-5.7V8.27h5.7V6.82l2.4-.4V8.27H80Zm-4.75,5.9H72.82l-1.15-3.65h2.4Z" transform="translate(-26.67 -6.37)" style="fill:#eae7e7"/><path d="M33,6.37a6.27,6.27,0,1,0,.05,0H33Zm2.75,6.8H33.57V14h2.15v1.15H33.57v1.5H32.42v-1.5H30.27V14h2.15V13.17H30.27V12H32l-1.6-2.8h1.3l1.3,2.3,1.3-2.3h1.3L34,12h1.7v1.15h0Z" transform="translate(-26.67 -6.37)" style="fill:#eae7e7"/></svg>